name analog
datacolumns 19
datarows 56
range 0.512 0.5395
endheader
time	ground_force_vx	ground_force_vy	ground_force_vz	ground_force_px	ground_force_py	ground_force_pz	l_ground_force_vx	l_ground_force_vy	l_ground_force_vz	l_ground_force_px	l_ground_force_py	l_ground_force_pz	ground_torque_x	ground_torque_y	ground_torque_z	l_ground_torque_x	l_ground_torque_y	l_ground_torque_z
0.512	-0.0	-0.0	-0.0	-2.973996639251709	33.25971221923828	-359.1245422363281	0.6510528326034546	-46.3913459777832	-389.0436706542969	-0.0	-0.0	-0.0	-0.0	-0.0	-0.0	86826.9453125	17784.658203125	-1314.023681640625
0.5125	-0.0	-0.0	-0.0	-3.382514476776123	33.11164093017578	-355.18292236328125	0.9683266282081604	-46.2071647644043	-390.4399719238281	-0.0	-0.0	-0.0	-0.0	-0.0	-0.0	87285.4140625	16964.4921875	-1111.12255859375
0.513	-0.0	-0.0	-0.0	-3.858393907546997	32.62916946411133	-357.8001403808594	1.308298110961914	-45.6845817565918	-391.0791320800781	-0.0	-0.0	-0.0	-0.0	-0.0	-0.0	88060.1875	16551.802734375	-927.7659912109376
0.5135	-0.0	-0.0	-0.0	-4.16325569152832	32.354339599609375	-354.9751892089844	1.5819600820541382	-45.47828674316406	-392.2420654296875	-0.0	-0.0	-0.0	-0.0	-0.0	-0.0	88555.5234375	16354.1201171875	-786.6517944335938
0.514	-0.0	-0.0	-0.0	-3.657630920410156	32.079566955566406	-354.1201171875	1.3232710361480713	-45.06613540649414	-391.4280700683594	-0.0	-0.0	-0.0	-0.0	-0.0	-0.0	88988.7578125	15811.2294921875	-808.96337890625
0.5145	-0.0	-0.0	-0.0	-2.9586377143859863	31.57417869567871	-356.3294982910156	1.1679468154907229	-44.77177810668945	-392.5043029785156	-0.0	-0.0	-0.0	-0.0	-0.0	-0.0	89116.21875	15240.529296875	-804.0938110351562
0.515	-0.0	-0.0	-0.0	-2.847428560256958	31.54486083984375	-355.9764404296875	1.0425820350646973	-44.21183013916016	-391.4853515625	-0.0	-0.0	-0.0	-0.0	-0.0	-0.0	89255.3203125	14612.583984375	-912.94921875
0.5155	-0.0	-0.0	-0.0	-2.0372791290283203	31.27022171020508	-356.3874206542969	0.7473703026771545	-43.93942642211914	-390.758056640625	-0.0	-0.0	-0.0	-0.0	-0.0	-0.0	89409.796875	14552.951171875	-813.9957275390625
0.516	-0.0	-0.0	-0.0	-1.7697229385375977	30.68980598449707	-355.62353515625	0.3620951771736145	-43.80755615234375	-391.1639709472656	-0.0	-0.0	-0.0	-0.0	-0.0	-0.0	89468.6875	13983.3896484375	-875.976806640625
0.5165	-0.0	-0.0	-0.0	-1.212917447090149	30.935449600219727	-357.7427673339844	-0.2661323547363281	-43.962650299072266	-391.8049011230469	-0.0	-0.0	-0.0	-0.0	-0.0	-0.0	89625.7578125	13799.255859375	-980.619140625
0.517	-0.0	-0.0	-0.0	-0.6172904372215271	30.236736297607425	-358.8023681640625	-0.1102864742279052	-43.425628662109375	-391.7198181152344	-0.0	-0.0	-0.0	-0.0	-0.0	-0.0	89986.6328125	13303.2099609375	-848.9163818359375
0.5175	-0.0	-0.0	-0.0	-0.0820650532841682	30.682275772094727	-360.4835815429688	-0.2446691393852234	-43.0197868347168	-393.9556579589844	-0.0	-0.0	-0.0	-0.0	-0.0	-0.0	90615.140625	13000.76953125	-893.8451538085938
0.518	-0.0	-0.0	-0.0	0.1855287849903106	30.325639724731445	-359.29656982421875	0.0958276987075805	-43.05846786499024	-393.228759765625	-0.0	-0.0	-0.0	-0.0	-0.0	-0.0	91057.59375	12335.34765625	-633.8135375976562
0.5185	-0.0	-0.0	-0.0	0.3851667046546936	30.50382232666016	-361.3031005859375	0.3690240979194641	-42.06230163574219	-392.5022277832031	-0.0	-0.0	-0.0	-0.0	-0.0	-0.0	91205.3046875	12250.1982421875	-587.1052856445312
0.519	-0.0	-0.0	-0.0	0.3709289729595184	30.250391006469727	-362.2789611816406	1.2207920551300049	-42.06921005249024	-393.0892028808594	-0.0	-0.0	-0.0	-0.0	-0.0	-0.0	91647.2109375	11734.3720703125	-415.6800842285156
0.5195	-0.0	-0.0	-0.0	1.2699644565582275	30.161073684692383	-358.6440734863281	0.9432318806648254	-41.64841079711914	-394.45849609375	-0.0	-0.0	-0.0	-0.0	-0.0	-0.0	91666.7734375	11249.443359375	-151.1903076171875
0.52	-0.0	-0.0	-0.0	1.1109540462493896	30.194318771362305	-362.55029296875	1.4682247638702393	-42.02027893066406	-394.56878662109375	-0.0	-0.0	-0.0	-0.0	-0.0	-0.0	91808.921875	10808.6181640625	-27.624622344970703
0.5205	-0.0	-0.0	-0.0	1.6394672393798828	30.43507957458496	-359.023193359375	1.8837814331054688	-42.12944793701172	-394.6507568359375	-0.0	-0.0	-0.0	-0.0	-0.0	-0.0	92409.1015625	10303.580078125	84.2801284790039
0.521	-0.0	-0.0	-0.0	0.9744117259979248	31.092714309692383	-358.6963195800781	1.808786511421204	-41.87824630737305	-395.2396240234375	-0.0	-0.0	-0.0	-0.0	-0.0	-0.0	92953.6875	9807.89453125	291.913818359375
0.5215	-0.0	-0.0	-0.0	0.281363844871521	31.408151626586918	-361.6018981933594	2.736280918121338	-41.55227279663086	-395.2937622070313	-0.0	-0.0	-0.0	-0.0	-0.0	-0.0	93093.4375	9782.9365234375	463.7168884277344
0.522	-0.0	-0.0	-0.0	0.4050142467021942	31.723588943481445	-362.7158203125	2.511303424835205	-41.782981872558594	-396.2062072753906	-0.0	-0.0	-0.0	-0.0	-0.0	-0.0	93183.0390625	9309.8759765625	582.1632080078125
0.5225	-0.0	-0.0	-0.0	-0.4392505288124084	31.195640563964844	-362.2818298339844	2.804680585861206	-41.78294372558594	-395.85748291015625	-0.0	-0.0	-0.0	-0.0	-0.0	-0.0	93375.6875	8748.779296875	582.3843994140625
0.523	-0.0	-0.0	-0.0	-1.063761830329895	31.5656795501709	-362.8229370117188	2.8184189796447754	-42.25887298583984	-395.58880615234375	-0.0	-0.0	-0.0	-0.0	-0.0	-0.0	94102.71875	8346.7080078125	673.5436401367188
0.5235	-0.0	-0.0	-0.0	-0.6109977960586548	31.654756546020508	-365.81439208984375	2.6748218536376958	-41.85776138305664	-396.2339782714844	-0.0	-0.0	-0.0	-0.0	-0.0	-0.0	93979.1640625	7658.55126953125	728.3577880859375
0.524	-0.0	-0.0	-0.0	-0.918905794620514	32.01120376586914	-366.3006591796875	2.4220376014709477	-42.10940170288086	-396.768310546875	-0.0	-0.0	-0.0	-0.0	-0.0	-0.0	94638.5625	7555.60595703125	766.7803955078125
0.5245	-0.0	-0.0	-0.0	-0.8295444846153259	32.01112747192383	-368.7462158203125	2.8387451171875	-41.919578552246094	-396.8200988769531	-0.0	-0.0	-0.0	-0.0	-0.0	-0.0	95151.265625	7077.04296875	849.3967895507812
0.525	-0.0	-0.0	-0.0	-0.8161736726760864	31.7967586517334	-370.5646362304688	3.193588256835937	-41.762916564941406	-396.6100463867188	-0.0	-0.0	-0.0	-0.0	-0.0	-0.0	95284.40625	6340.3271484375	979.4733276367188
0.5255	-0.0	-0.0	-0.0	-0.3072426617145538	32.44346618652344	-372.9841613769531	3.220043659210205	-41.18424606323242	-395.989990234375	-0.0	-0.0	-0.0	-0.0	-0.0	-0.0	95775.1640625	6154.03125	895.0201416015625
0.526	-0.0	-0.0	-0.0	-0.8658484816551208	32.57194900512695	-374.47467041015625	3.5550076961517334	-41.00745391845703	-396.9595336914063	-0.0	-0.0	-0.0	-0.0	-0.0	-0.0	95893.21875	5496.294921875	1180.8731689453125
0.5265	-0.0	-0.0	-0.0	-0.6113985776901245	32.91524887084961	-377.3423156738281	4.054496765136719	-41.32802963256836	-396.7393493652344	-0.0	-0.0	-0.0	-0.0	-0.0	-0.0	95898.4140625	5095.0908203125	1238.2760009765625
0.527	-0.0	-0.0	-0.0	-0.8596060872077942	33.45637512207031	-375.5589599609375	3.8341009616851807	-41.09552383422852	-394.9930419921875	-0.0	-0.0	-0.0	-0.0	-0.0	-0.0	96273.4453125	4666.7138671875	1338.0587158203125
0.5275	-0.0	-0.0	-0.0	-1.044677734375	33.44327163696289	-378.2301635742188	4.149982452392578	-40.87360382080078	-395.2651062011719	-0.0	-0.0	-0.0	-0.0	-0.0	-0.0	96163.2109375	4268.60205078125	1418.608642578125
0.528	-0.0	-0.0	-0.0	-1.1211854219436646	33.52587127685547	-378.8603515625	4.390471935272217	-40.80461883544922	-392.92230224609375	-0.0	-0.0	-0.0	-0.0	-0.0	-0.0	96101.25	3899.5263671875	1524.5238037109375
0.5285	-0.0	-0.0	-0.0	-0.9176969528198242	34.28324890136719	-376.1873168945313	4.334006309509277	-40.63435745239258	-392.1729736328125	-0.0	-0.0	-0.0	-0.0	-0.0	-0.0	96062.59375	3493.177001953125	1601.0509033203125
0.529	-0.0	-0.0	-0.0	-1.1851776838302612	33.85049057006836	-376.0863037109375	4.080696105957031	-40.180023193359375	-392.8687744140625	-0.0	-0.0	-0.0	-0.0	-0.0	-0.0	95547.8203125	3275.49951171875	1632.7437744140625
0.5295	-0.0	-0.0	-0.0	-1.102138876914978	33.70392608642578	-374.7990417480469	4.201087474822998	-40.01603698730469	-388.9299621582031	-0.0	-0.0	-0.0	-0.0	-0.0	-0.0	95432.046875	2674.599365234375	1696.386474609375
0.53	-0.0	-0.0	-0.0	-1.070526123046875	33.35993194580078	-375.0521545410156	4.619270324707031	-39.662723541259766	-385.7132263183594	-0.0	-0.0	-0.0	-0.0	-0.0	-0.0	95141.4921875	2563.942138671875	1927.7032470703125
0.5305	-0.0	-0.0	-0.0	-0.8404445052146912	33.86955261230469	-371.0123596191406	4.974076271057129	-39.82683944702149	-382.9946594238281	-0.0	-0.0	-0.0	-0.0	-0.0	-0.0	94691.2734375	2275.5576171875	2072.001708984375
0.531	-0.0	-0.0	-0.0	-0.8277770280838013	33.54410552978516	-371.6768493652344	5.068984031677246	-39.06922149658203	-380.1525268554688	-0.0	-0.0	-0.0	-0.0	-0.0	-0.0	93921.21875	1877.0648193359373	2269.47314453125
0.5315	-0.0	-0.0	-0.0	-1.2055879831314087	33.77423858642578	-368.6708068847656	5.778617858886719	-39.032005310058594	-376.734619140625	-0.0	-0.0	-0.0	-0.0	-0.0	-0.0	93638.8359375	1308.163330078125	2316.294921875
0.532	-0.0	-0.0	-0.0	-0.4706784188747406	33.51918029785156	-366.9052429199219	5.650489330291748	-38.3193244934082	-373.2916870117188	-0.0	-0.0	-0.0	-0.0	-0.0	-0.0	92563.8046875	1109.377685546875	2521.91943359375
0.5325	-0.0	-0.0	-0.0	-0.2982253432273865	33.75597381591797	-366.2476196289063	5.885579109191895	-38.066650390625	-369.40240478515625	-0.0	-0.0	-0.0	-0.0	-0.0	-0.0	92084.9609375	539.6425170898438	2581.44140625
0.533	-0.0	-0.0	-0.0	-0.0060958634130656	33.42999267578125	-365.0915222167969	6.185312271118164	-37.789512634277344	-367.2113037109375	-0.0	-0.0	-0.0	-0.0	-0.0	-0.0	91715.25	310.9347839355469	2611.365966796875
0.5335	-0.0	-0.0	-0.0	-0.2373407185077667	33.42390441894531	-364.5056762695313	6.748092651367188	-37.50648880004883	-365.1886901855469	-0.0	-0.0	-0.0	-0.0	-0.0	-0.0	90999.234375	46.74595642089844	2781.66162109375
0.534	-0.0	-0.0	-0.0	0.9752951264381408	33.115501403808594	-362.4341125488281	6.895298480987549	-37.0188102722168	-360.9752502441406	-0.0	-0.0	-0.0	-0.0	-0.0	-0.0	90616.6953125	-186.7154083251953	2934.259521484375
0.5345	-0.0	-0.0	-0.0	1.415380597114563	33.239654541015625	-364.1047973632813	7.173555374145508	-36.56517791748047	-358.1112976074219	-0.0	-0.0	-0.0	-0.0	-0.0	-0.0	90057.0390625	-617.64453125	2999.920166015625
0.535	-0.0	-0.0	-0.0	1.332201600074768	33.45365905761719	-364.7405700683594	7.280256271362305	-36.39448165893555	-355.76202392578125	-0.0	-0.0	-0.0	-0.0	-0.0	-0.0	89267.1953125	-744.3494873046875	3282.651123046875
0.5355	-0.0	-0.0	-0.0	1.5106602907180786	33.66172790527344	-366.5538940429688	7.138402462005615	-36.18825912475586	-351.6190490722656	-0.0	-0.0	-0.0	-0.0	-0.0	-0.0	88601.5625	-1319.3040771484375	3428.97607421875
0.536	-0.0	-0.0	-0.0	1.5224601030349731	33.42390441894531	-365.8944091796875	7.788856506347656	-35.87034606933594	-349.7802734375	-0.0	-0.0	-0.0	-0.0	-0.0	-0.0	88067.703125	-1407.8828125	3467.12109375
0.5365	-0.0	-0.0	-0.0	1.4025555849075315	33.72053909301758	-368.106201171875	7.806549072265625	-35.6585807800293	-346.5458374023437	-0.0	-0.0	-0.0	-0.0	-0.0	-0.0	87534.2421875	-1749.02490234375	3589.76953125
0.537	-0.0	-0.0	-0.0	1.2954803705215454	34.44697952270508	-364.6659240722656	7.812382221221924	-35.42280578613281	-343.9832458496094	-0.0	-0.0	-0.0	-0.0	-0.0	-0.0	87282.125	-2389.24755859375	3571.84765625
0.5375	-0.0	-0.0	-0.0	1.9221785068511963	34.148494720458984	-368.4224243164063	8.338813781738281	-35.464927673339844	-341.052734375	-0.0	-0.0	-0.0	-0.0	-0.0	-0.0	86948.078125	-2415.25439453125	3683.015380859375
0.538	-0.0	-0.0	-0.0	2.189994096755981	34.22607421875	-364.7893371582031	8.338813781738281	-34.79874420166016	-341.3113098144531	-0.0	-0.0	-0.0	-0.0	-0.0	-0.0	86775.1953125	-2764.239013671875	3819.894287109375
0.5385	-0.0	-0.0	-0.0	1.4445130825042725	34.58830642700195	-366.7051086425781	8.58201789855957	-34.622100830078125	-337.7982788085937	-0.0	-0.0	-0.0	-0.0	-0.0	-0.0	86222.1640625	-3003.190185546875	4022.03564453125
0.539	-0.0	-0.0	-0.0	1.467108964920044	34.48212432861328	-365.3839111328125	8.836912155151367	-34.15214920043945	-333.4846496582031	-0.0	-0.0	-0.0	-0.0	-0.0	-0.0	85286.0703125	-3327.92431640625	3998.447265625
0.5395	-0.0	-0.0	-0.0	1.985234498977661	34.482177734375	-360.8827819824219	8.32747745513916	-33.47956466674805	-329.814453125	-0.0	-0.0	-0.0	-0.0	-0.0	-0.0	84739.3125	-3563.67919921875	3974.29541015625
